# xmcd CD database file
#
# Track frame offsets:
#	150
#	12467
#	48617
#	65759
#	84123
#	95536
#	114038
#	134404
#	154441
#	171077
#	188814
#	200729
#	216973
#	228545
#
# Disc length: 3241 seconds
#
# Revision: 0
# Processed by: cddbd v1.5.2PL0 Copyright (c) Steve Scherf et al.
# Submitted via: CDex 1.70beta2
#
DISCID=c70ca70e
DTITLE=Undertoe - Walking Down Angell Road
DYEAR=2006
DGENRE=
TTITLE0=Undertoe
TTITLE1=Elsie's Farewell/The End of July/Baudimic
TTITLE2=Arigana Highway
TTITLE3=Monk's Dream
TTITLE4=Boyne Hunt/Man of the House
TTITLE5=New Year's Hope (Hunting Houses/New Year's Day/The Hope Jig)
TTITLE6=Goin' to TopHill
TTITLE7=Bridget Masten/Matthew's One-Step
TTITLE8=Wavy Island/Ms. Mona Dalziel
TTITLE9=Libertine/Only Viveka
TTITLE10=Bubblepop
TTITLE11=Tongue-Tied
TTITLE12=Our Peter
TTITLE13=The Gold Watch
EXTD=YEAR: 2006
EXTT0=
EXTT1=
EXTT2=
EXTT3=
EXTT4=
EXTT5=
EXTT6=
EXTT7=
EXTT8=
EXTT9=
EXTT10=
EXTT11=
EXTT12=
EXTT13=
PLAYORDER=
